DataType=double
version=3
OpenSimVersion=4.4-2022-10-11-798caa840
endheader
time	ground_force_r_vx	ground_force_r_vy	ground_force_r_vz	ground_force_r_px	ground_force_r_py	ground_force_r_pz	ground_force_l_vx	ground_force_l_vy	ground_force_l_vz	ground_force_l_px	ground_force_l_py	ground_force_l_pz	ground_torque_r_x	ground_torque_r_y	ground_torque_r_z	ground_torque_l_x	ground_torque_l_y	ground_torque_l_z
3.08	-2.808647834053219	2.192266793908709	0.1627647835587792	1.160939146451351	0	-0.4292132045190854	115.9369362556966	828.2059653886922	34.76758292835969	0.669240834748708	0	-0.5496681334760858	0	-2.211521846207098e-08	0	0	-0.2826945344992708	0
3.085	-4.036868067006719	3.521153242067274	0.1159818010280134	1.164249357259654	0	-0.4292189248112601	121.8932046621237	816.4827856238912	30.30553912605442	0.6708726508478196	0	-0.5483417573549	0	-1.129826442403115e-07	0	0	-0.6537371506085954	0
3.09	-6.207440721672238	5.98279076611242	-0.1889444981737555	1.166756333725131	0	-0.4290378484352546	127.2796462033313	808.0078510285166	30.52183693768216	0.6725268458699241	0	-0.5469887629585809	0	-8.136157329252658e-07	0	0	-0.9343645740016768	0
3.095	-10.47456900766656	11.00268696232029	-1.274673599698214	1.168468566765492	0	-0.4287433412643432	132.2897388097607	800.0024977223509	32.12445178293402	0.6742309862357208	0	-0.5456189208499326	0	-5.568074723072414e-06	0	0	-0.9985501831216439	0
3.1	-14.64885824653792	19.35207918351654	-4.252020128207525	1.169252817594753	0	-0.4284700435369006	137.2581874438912	790.8221123372614	32.76270750468722	0.6759891760381967	0	-0.5442209567974405	0	-5.06275845122417e-05	0	0	-0.86852420792912	0
3.105	-7.351992232904957	30.32870269771116	-5.328922749438466	1.169401063445149	0	-0.4285004245757035	142.3561125281948	780.9522400024375	33.17709946666675	0.6777918957797379	0	-0.5427654876693651	0	-0.0002611182092122633	0	0	-0.6455041042211036	0
3.11	0.1251896862340331	46.69072194285476	-4.036023601996297	1.170036797406639	0	-0.4285024805477941	147.547680981325	770.0320337863081	33.18545526002555	0.6796704533631622	0	-0.5412083974485798	0	-0.0009958011192168215	0	0	-0.4144770891904948	0
3.115	4.18376620285396	80.11234820547583	-0.8378140604109806	1.170815705180563	0	-0.4284080348534418	152.3893970745026	757.066360902787	32.14340231524936	0.6816068404003165	0	-0.539620553157245	0	-0.003491121682136278	0	0	-0.2122148595090785	0
3.12	2.43882658646879	133.0147130341788	4.826465811101921	1.171654002657685	0	-0.4282052313150324	157.0413912616021	741.6686208771878	30.69906734329998	0.6835592653241385	0	-0.538097388383207	0	-0.01183250225562915	0	0	-0.03147067220706035	0
3.125	-4.422980576207493	191.3001173078148	10.76879889717982	1.172822477140375	0	-0.4278101074422921	161.0551431592817	723.6581174173944	28.64750201297923	0.6854866884719343	0	-0.5367258485500304	0	-0.0384978551958266	0	0	0.139377374748392	0
3.13	-13.65262373221165	244.8148758485789	16.35087910953234	1.174647657529104	0	-0.4270505426052672	164.1569112319274	703.177841456519	26.06664997621228	0.6873331052389634	0	-0.5356105697019834	0	-0.1030308639693693	0	0	0.3032066114877345	0
3.135	-23.86769376065291	290.0017128646223	21.07798702007936	1.177227985745606	0	-0.4258898798903156	166.1900629576293	680.6092188739869	23.36853850367528	0.6890553370785445	0	-0.5348235473171733	0	-0.2023948478169082	0	0	0.4603408811086673	0
3.14	-37.3342009824316	324.473343258893	23.02392021180849	1.180337769021725	0	-0.4245785110522846	166.7816868076034	656.0039190852789	20.59995109412327	0.6906655913476042	0	-0.5343722399545486	0	-0.3228478400150756	0	0	0.6026839914367628	0
3.145	-51.46880511442113	350.7086898241695	22.47243661981353	1.184909125778766	0	-0.4230093553616165	166.2069597946094	629.0223510612004	17.80879821091462	0.6922658658317528	0	-0.5341692144622231	0	-0.5106732096962538	0	0	0.717671802751612	0
3.15	-64.84157188119069	380.7967191001459	20.20341080339947	1.193533068433063	0	-0.4206036344715938	164.2766795044673	598.8270614840314	15.0026703540094	0.6939729130060895	0	-0.534134679069821	0	-0.7979904987498792	0	0	0.796004341071999	0
3.155	-79.24842128673805	418.4759105196102	16.50135027527809	1.205950082852277	0	-0.4182092070126492	160.5898721253766	564.4256120415937	12.15043042118669	0.6958636705619138	0	-0.5342640592716147	0	-0.8681791629845783	0	0	0.8372789724836682	0
3.16	-91.30313856693796	450.7572058466041	12.825087507206	1.219025762822513	0	-0.4168606501484939	155.2805390249821	526.0602869214592	9.06335676789439	0.6979889443183441	0	-0.5345884729501287	0	-0.5142783754612541	0	0	0.8490447340085048	0
3.165	-100.2366215701824	472.8398039567837	10.71862894030962	1.232251010152397	0	-0.4165450051945702	149.3969305098248	484.2161205680894	5.676101121995009	0.7004469867063005	0	-0.5351021238337644	0	-0.2351174250377124	0	0	0.8299757754447756	0
3.17	-108.4887698510522	493.8411540642414	9.426379271561103	1.246562120832265	0	-0.4173516029310183	142.3668850530543	436.4187838165424	2.081191153880702	0.7034985088883757	0	-0.5357811921980344	0	-0.3874744047824876	0	0	0.7593595265662114	0
3.175	-114.8636733800113	509.5957297592009	8.555502783916889	1.259468119638199	0	-0.418537473880109	129.7850158358364	373.2080249886292	-1.025027713756022	0.7078447467400636	0	-0.5367852236059338	0	-0.8237837540125028	0	0	0.6022563194628218	0
3.18	-120.0400017075116	520.5283468074894	7.239074612690944	1.269771295274782	0	-0.4194717446502009	113.9147408860349	295.1063400935049	-3.966494609033924	0.7146038230970818	0	-0.5384068453910054	0	-1.219499120351195	0	0	0.3533865093035469	0
3.185	-124.8900697731449	531.9275968762485	4.320685410714862	1.277508583228571	0	-0.4199857629172027	99.30166473680907	225.0007797750244	-6.442478953659647	0.7236536739971416	0	-0.5406460022928266	0	-1.463783906724181	0	0	0.1050595329836863	0
3.19	-129.2606430526828	542.2659804201662	-0.65274943379104	1.283227218793048	0	-0.4201326764245482	84.12158345382966	185.3448334895522	-8.159176779640044	0.7297089658797229	0	-0.5424184507220678	0	-1.694595749826219	0	0	-0.003712098628240845	0
3.195	-133.1100311783261	551.983236618518	-7.02467928321469	1.287538246029545	0	-0.4199882179871676	73.38713954268697	170.1854654115781	-9.628517565650379	0.7299112423277497	0	-0.5424632873066867	0	-2.014193531216222	0	0	-3.337557762783661e-05	0
3.2	-136.7011747108374	565.1169790831668	-14.1946765930051	1.29085288241138	0	-0.4195964249636778	71.08882202901316	161.093730637198	-10.20808239224838	0.7305662520131299	0	-0.5425432390055406	0	-2.263769714401715	0	0	-3.498077941088695e-06	0
3.205	-140.1865517927401	584.1133817389406	-20.86870794289975	1.293546537285676	0	-0.4190098401435007	66.8792799776413	158.0158478510698	-10.76865182190049	0.731180407679892	0	-0.5426236368170256	0	-2.374194062239649	0	0	-2.025430687169205e-06	0
3.21	-142.9513631727979	607.6890864507723	-25.96710536113255	1.295905201254619	0	-0.4183087739999143	55.1382679444052	150.6991481352851	-11.54782644421007	0.7317733914336595	0	-0.5427200309425744	0	-2.387185158143843	0	0	-3.765891722906645e-07	0
3.215	-145.0322196357533	634.1182302032928	-29.39001628083394	1.298112575059312	0	-0.4175893046041028	43.41339768515456	134.7002533740252	-11.74934223563367	0.7325694477053203	0	-0.5428234605727312	0	-2.334947938070691	0	0	-5.961911853091806e-09	0
3.22	-146.2102281641603	662.0513344687409	-31.4475422168034	1.300286338397417	0	-0.4169476128509267	33.28578316742507	111.8743217977888	-11.08716648618172	0.7335749423446312	0	-0.542918830696017	0	-2.288538196614901	0	0	-1.223909862346773e-11	0
3.225	-146.5293360936344	690.2668523806054	-32.46526433281459	1.302327484291879	0	-0.4163936477020859	22.85985389964262	84.75955364081337	-11.21289050297296	0.7347162315766577	0	-0.5430491619881217	0	-2.243448428652577	0	0	-8.881784197001252e-15	0
3.23	-145.6796277567092	719.2616201794054	-33.5765303041486	1.303880505917811	0	-0.4158044484891384	9.383939047632932	55.86738660982518	-12.31005433364868	0.7358774069252731	0	-0.5432219111882922	0	-1.997159139252744	0	0	0	0
3.235	-144.0598186627093	748.0147012639484	-34.93106088767671	1.304781337643754	0	-0.4151206166859361	-2.549300028787442	28.72939802670076	-10.95498044588646	0.7370985948498195	0	-0.5433254459140798	0	-1.47168933662288	0	0	0	0
3.24	-142.0512783871749	773.0834527874317	-36.26209683425424	1.305279084242697	0	-0.4144285901808624	-4.04889166673897	5.6541118050608	-3.161881472706879	0.7387062032534157	0	-0.5430454705614962	0	-0.911501927277655	0	0	0	0
3.245	-139.3973748903292	793.1924141091841	-37.46916992794552	1.305675622063029	0	-0.4137954525878195	0.005410611128215661	-0.005472100642292585	0.00174498042429936	0.7426429994035447	0	-0.5420496143121498	0	-0.5283387325153726	0	0	-1.301042606982605e-18	0
3.25	-136.4373654385814	808.4208067960063	-38.07716971807303	1.306200649258324	0	-0.4132652888801455	2.684197579894026e-05	-2.339247639217765e-05	4.265650241056866e-06	0.7484176205915881	0	-0.5414524354666095	0	-0.3494837749028648	0	0	-2.117582368135751e-21	0
3.255	-133.2448176866963	819.1438031363576	-37.82202986974092	1.306999458798308	0	-0.4128587428478858	1.175149658981106e-05	-9.43531887363334e-06	1.041139964175156e-06	0.7554559079692985	0	-0.5411849085468431	0	-0.3303907080827386	0	0	1.270549420881451e-21	0
3.26	-129.5767313489035	827.2300624026689	-37.1702147136998	1.308013931779122	0	-0.4125169595154672	1.485486902911527e-06	-1.097922047810903e-06	6.710417608686944e-08	0.7636496956487515	0	-0.5411455807047136	0	-0.3109612199921088	0	0	-1.78671012311454e-22	0
3.265	-125.6675977235641	833.461227264391	-36.46832232921306	1.309138345915778	0	-0.4121760141455094	8.239602402812696e-08	-5.598538255682862e-08	1.061760293964812e-09	0.7732089440337395	0	-0.5413178352290856	0	-0.227386738127592	0	0	-8.685396431806791e-24	0
3.27	-121.5667771544119	837.2529132340788	-36.04953742971161	1.310354549533965	0	-0.4118131450287957	1.24445144186336e-08	-7.863517007071109e-09	-1.358932008517001e-10	0.784068659521711	0	-0.5416998325345354	0	-0.1406495112919828	0	0	-4.329773518832254e-24	0
3.275	-117.3438223896848	838.5624656581183	-36.19850215884482	1.311695952045785	0	-0.4114343008551961	6.252190124950704e-09	-3.708512192580316e-09	-1.758832644543867e-10	0.7960888808897975	0	-0.5422670415616386	0	-0.03271034631011815	0	0	-1.041730583933969e-23	0
3.28	-113.1334847763528	837.6126717043413	-36.82340184015345	1.313178253603268	0	-0.4110558098455927	5.144350176082848e-09	-2.874559222940066e-09	-2.112454191963187e-10	0.8092364000807843	0	-0.5430045537274568	0	0.1281053788409707	0	0	-3.042473690546605e-23	0
3.285	-109.0221501656738	834.4636955329933	-37.57152838365724	1.314791857401763	0	-0.4106823493558694	8.972681029543662e-09	-4.744885680102899e-09	-4.564058495197895e-10	0.8234393327504954	0	-0.5438924078068046	0	0.3263570701038319	0	0	-1.495645945072443e-22	0
3.29	-105.0494244300808	829.2573764970908	-38.26896159425598	1.316531293013814	0	-0.4103213478142921	3.148950061486992e-08	-1.583856365005213e-08	-1.831715549187653e-09	0.8385800628769707	0	-0.544905622982978	0	0.5547931482606074	0	0	-1.312322041815378e-21	0
3.295	-101.2618936858433	822.1523702953187	-38.69085522308761	1.318378704362257	0	-0.4099698201014985	2.245137003625748e-07	-1.080041446897435e-07	-1.41753429102571e-08	0.8545094185103499	0	-0.5460049507191018	0	0.797190325371183	0	0	-2.065635425667421e-20	0
